<mxfile host="app.diagrams.net" agent="Mozilla/5.0 (Windows NT 10.0; Win64; x64) AppleWebKit/537.36 (KHTML, like Gecko) Chrome/136.0.0.0 Safari/537.36 Edg/136.0.0.0" version="26.0.16">
  <diagram name="Page-1" id="5f0bae14-7c28-e335-631c-24af17079c00">
    <mxGraphModel dx="2988" dy="4212" grid="1" gridSize="10" guides="1" tooltips="1" connect="1" arrows="1" fold="1" page="1" pageScale="1" pageWidth="1100" pageHeight="850" background="none" math="0" shadow="0">
      <root>
        <mxCell id="0" />
        <mxCell id="1" parent="0" />
        <mxCell id="LtLd2qzQEVTSshfY8u-q-55" value="" style="ellipse;whiteSpace=wrap;html=1;align=center;aspect=fixed;fillColor=none;strokeColor=none;resizable=0;perimeter=centerPerimeter;rotatable=0;allowArrows=0;points=[];outlineConnect=1;" vertex="1" parent="1">
          <mxGeometry x="550" y="510" width="10" height="10" as="geometry" />
        </mxCell>
        <mxCell id="LtLd2qzQEVTSshfY8u-q-56" value="" style="shape=providedRequiredInterface;html=1;verticalLabelPosition=bottom;sketch=0;rotation=-180;" vertex="1" parent="1">
          <mxGeometry x="769" y="-2419" width="30" height="30" as="geometry" />
        </mxCell>
        <mxCell id="LtLd2qzQEVTSshfY8u-q-86" value="«Notebook»&lt;br&gt;&lt;b&gt;Main.nb&lt;/b&gt;" style="html=1;dropTarget=0;whiteSpace=wrap;" vertex="1" parent="1">
          <mxGeometry x="20" y="-2119" width="180" height="90" as="geometry" />
        </mxCell>
        <mxCell id="LtLd2qzQEVTSshfY8u-q-87" value="" style="shape=module;jettyWidth=8;jettyHeight=4;" vertex="1" parent="LtLd2qzQEVTSshfY8u-q-86">
          <mxGeometry x="1" width="20" height="20" relative="1" as="geometry">
            <mxPoint x="-27" y="7" as="offset" />
          </mxGeometry>
        </mxCell>
        <mxCell id="LtLd2qzQEVTSshfY8u-q-90" value="&lt;b&gt;Battle.m&lt;/b&gt;" style="html=1;dropTarget=0;whiteSpace=wrap;" vertex="1" parent="1">
          <mxGeometry x="819" y="-2439" width="226" height="430" as="geometry" />
        </mxCell>
        <mxCell id="LtLd2qzQEVTSshfY8u-q-91" value="" style="shape=module;jettyWidth=8;jettyHeight=4;" vertex="1" parent="LtLd2qzQEVTSshfY8u-q-90">
          <mxGeometry x="1" width="20" height="20" relative="1" as="geometry">
            <mxPoint x="-27" y="7" as="offset" />
          </mxGeometry>
        </mxCell>
        <mxCell id="LtLd2qzQEVTSshfY8u-q-99" value="" style="endArrow=none;html=1;rounded=0;fontSize=12;startSize=8;endSize=8;curved=1;" edge="1" parent="1">
          <mxGeometry width="50" height="50" relative="1" as="geometry">
            <mxPoint x="799" y="-2404" as="sourcePoint" />
            <mxPoint x="819" y="-2404" as="targetPoint" />
          </mxGeometry>
        </mxCell>
        <mxCell id="LtLd2qzQEVTSshfY8u-q-106" value="" style="shape=providedRequiredInterface;html=1;verticalLabelPosition=bottom;sketch=0;rotation=-180;" vertex="1" parent="1">
          <mxGeometry x="769" y="-2329" width="30" height="30" as="geometry" />
        </mxCell>
        <mxCell id="LtLd2qzQEVTSshfY8u-q-107" value="" style="endArrow=none;html=1;rounded=0;fontSize=12;startSize=8;endSize=8;curved=1;" edge="1" parent="1">
          <mxGeometry width="50" height="50" relative="1" as="geometry">
            <mxPoint x="799" y="-2314" as="sourcePoint" />
            <mxPoint x="819" y="-2314" as="targetPoint" />
          </mxGeometry>
        </mxCell>
        <mxCell id="LtLd2qzQEVTSshfY8u-q-108" value="" style="shape=providedRequiredInterface;html=1;verticalLabelPosition=bottom;sketch=0;rotation=-180;" vertex="1" parent="1">
          <mxGeometry x="769" y="-2249" width="30" height="30" as="geometry" />
        </mxCell>
        <mxCell id="LtLd2qzQEVTSshfY8u-q-109" value="" style="endArrow=none;html=1;rounded=0;fontSize=12;startSize=8;endSize=8;curved=1;" edge="1" parent="1">
          <mxGeometry width="50" height="50" relative="1" as="geometry">
            <mxPoint x="799" y="-2234" as="sourcePoint" />
            <mxPoint x="819" y="-2234" as="targetPoint" />
          </mxGeometry>
        </mxCell>
        <mxCell id="LtLd2qzQEVTSshfY8u-q-110" value="Generate Coordinate" style="text;html=1;align=center;verticalAlign=middle;whiteSpace=wrap;rounded=0;" vertex="1" parent="1">
          <mxGeometry x="754" y="-2389" width="60" height="30" as="geometry" />
        </mxCell>
        <mxCell id="LtLd2qzQEVTSshfY8u-q-111" value="Attack" style="text;html=1;align=center;verticalAlign=middle;whiteSpace=wrap;rounded=0;" vertex="1" parent="1">
          <mxGeometry x="757.5" y="-2299" width="60" height="30" as="geometry" />
        </mxCell>
        <mxCell id="LtLd2qzQEVTSshfY8u-q-112" value="Init phase" style="text;html=1;align=center;verticalAlign=middle;whiteSpace=wrap;rounded=0;" vertex="1" parent="1">
          <mxGeometry x="755" y="-2219" width="65" height="30" as="geometry" />
        </mxCell>
        <mxCell id="LtLd2qzQEVTSshfY8u-q-115" value="" style="shape=providedRequiredInterface;html=1;verticalLabelPosition=bottom;sketch=0;rotation=-180;" vertex="1" parent="1">
          <mxGeometry x="769" y="-2159" width="30" height="30" as="geometry" />
        </mxCell>
        <mxCell id="LtLd2qzQEVTSshfY8u-q-116" value="" style="endArrow=none;html=1;rounded=0;fontSize=12;startSize=8;endSize=8;curved=1;" edge="1" parent="1">
          <mxGeometry width="50" height="50" relative="1" as="geometry">
            <mxPoint x="799" y="-2144" as="sourcePoint" />
            <mxPoint x="819" y="-2144" as="targetPoint" />
          </mxGeometry>
        </mxCell>
        <mxCell id="LtLd2qzQEVTSshfY8u-q-117" value="Start game" style="text;html=1;align=center;verticalAlign=middle;whiteSpace=wrap;rounded=0;" vertex="1" parent="1">
          <mxGeometry x="755" y="-2129" width="65" height="30" as="geometry" />
        </mxCell>
        <mxCell id="LtLd2qzQEVTSshfY8u-q-135" value="" style="shape=providedRequiredInterface;html=1;verticalLabelPosition=bottom;sketch=0;rotation=-180;" vertex="1" parent="1">
          <mxGeometry x="1108.5" y="-1890" width="30" height="30" as="geometry" />
        </mxCell>
        <mxCell id="LtLd2qzQEVTSshfY8u-q-136" value="&lt;b&gt;Util.m&lt;/b&gt;" style="html=1;dropTarget=0;whiteSpace=wrap;" vertex="1" parent="1">
          <mxGeometry x="1158.5" y="-1910" width="226" height="1060" as="geometry" />
        </mxCell>
        <mxCell id="LtLd2qzQEVTSshfY8u-q-137" value="" style="shape=module;jettyWidth=8;jettyHeight=4;" vertex="1" parent="LtLd2qzQEVTSshfY8u-q-136">
          <mxGeometry x="1" width="20" height="20" relative="1" as="geometry">
            <mxPoint x="-27" y="7" as="offset" />
          </mxGeometry>
        </mxCell>
        <mxCell id="LtLd2qzQEVTSshfY8u-q-138" value="" style="endArrow=none;html=1;rounded=0;fontSize=12;startSize=8;endSize=8;curved=1;" edge="1" parent="1">
          <mxGeometry width="50" height="50" relative="1" as="geometry">
            <mxPoint x="1138.5" y="-1875" as="sourcePoint" />
            <mxPoint x="1158.5" y="-1875" as="targetPoint" />
          </mxGeometry>
        </mxCell>
        <mxCell id="LtLd2qzQEVTSshfY8u-q-139" value="" style="shape=providedRequiredInterface;html=1;verticalLabelPosition=bottom;sketch=0;rotation=-180;" vertex="1" parent="1">
          <mxGeometry x="1108.5" y="-1800" width="30" height="30" as="geometry" />
        </mxCell>
        <mxCell id="LtLd2qzQEVTSshfY8u-q-140" value="" style="endArrow=none;html=1;rounded=0;fontSize=12;startSize=8;endSize=8;curved=1;" edge="1" parent="1">
          <mxGeometry width="50" height="50" relative="1" as="geometry">
            <mxPoint x="1138.5" y="-1785" as="sourcePoint" />
            <mxPoint x="1158.5" y="-1785" as="targetPoint" />
          </mxGeometry>
        </mxCell>
        <mxCell id="LtLd2qzQEVTSshfY8u-q-141" value="" style="shape=providedRequiredInterface;html=1;verticalLabelPosition=bottom;sketch=0;rotation=-180;" vertex="1" parent="1">
          <mxGeometry x="1108.5" y="-1720" width="30" height="30" as="geometry" />
        </mxCell>
        <mxCell id="LtLd2qzQEVTSshfY8u-q-142" value="" style="endArrow=none;html=1;rounded=0;fontSize=12;startSize=8;endSize=8;curved=1;" edge="1" parent="1">
          <mxGeometry width="50" height="50" relative="1" as="geometry">
            <mxPoint x="1138.5" y="-1705" as="sourcePoint" />
            <mxPoint x="1158.5" y="-1705" as="targetPoint" />
          </mxGeometry>
        </mxCell>
        <mxCell id="LtLd2qzQEVTSshfY8u-q-143" value="Init Seed" style="text;html=1;align=center;verticalAlign=middle;whiteSpace=wrap;rounded=0;" vertex="1" parent="1">
          <mxGeometry x="1093.5" y="-1860" width="60" height="30" as="geometry" />
        </mxCell>
        <mxCell id="LtLd2qzQEVTSshfY8u-q-144" value="Convert to decimal" style="text;html=1;align=center;verticalAlign=middle;whiteSpace=wrap;rounded=0;" vertex="1" parent="1">
          <mxGeometry x="1097" y="-1770" width="60" height="30" as="geometry" />
        </mxCell>
        <mxCell id="LtLd2qzQEVTSshfY8u-q-145" value="Map coordinate" style="text;html=1;align=center;verticalAlign=middle;whiteSpace=wrap;rounded=0;" vertex="1" parent="1">
          <mxGeometry x="1094.5" y="-1690" width="65" height="30" as="geometry" />
        </mxCell>
        <mxCell id="LtLd2qzQEVTSshfY8u-q-146" value="" style="shape=providedRequiredInterface;html=1;verticalLabelPosition=bottom;sketch=0;rotation=-180;" vertex="1" parent="1">
          <mxGeometry x="1108.5" y="-1630" width="30" height="30" as="geometry" />
        </mxCell>
        <mxCell id="LtLd2qzQEVTSshfY8u-q-147" value="" style="endArrow=none;html=1;rounded=0;fontSize=12;startSize=8;endSize=8;curved=1;" edge="1" parent="1">
          <mxGeometry width="50" height="50" relative="1" as="geometry">
            <mxPoint x="1138.5" y="-1615" as="sourcePoint" />
            <mxPoint x="1158.5" y="-1615" as="targetPoint" />
          </mxGeometry>
        </mxCell>
        <mxCell id="LtLd2qzQEVTSshfY8u-q-148" value="Verify input" style="text;html=1;align=center;verticalAlign=middle;whiteSpace=wrap;rounded=0;" vertex="1" parent="1">
          <mxGeometry x="1094.5" y="-1600" width="65" height="30" as="geometry" />
        </mxCell>
        <mxCell id="LtLd2qzQEVTSshfY8u-q-149" value="" style="shape=providedRequiredInterface;html=1;verticalLabelPosition=bottom;sketch=0;rotation=-180;" vertex="1" parent="1">
          <mxGeometry x="1108.5" y="-1550" width="30" height="30" as="geometry" />
        </mxCell>
        <mxCell id="LtLd2qzQEVTSshfY8u-q-150" value="" style="endArrow=none;html=1;rounded=0;fontSize=12;startSize=8;endSize=8;curved=1;" edge="1" parent="1">
          <mxGeometry width="50" height="50" relative="1" as="geometry">
            <mxPoint x="1138.5" y="-1535" as="sourcePoint" />
            <mxPoint x="1158.5" y="-1535" as="targetPoint" />
          </mxGeometry>
        </mxCell>
        <mxCell id="LtLd2qzQEVTSshfY8u-q-151" value="Create grid" style="text;html=1;align=center;verticalAlign=middle;whiteSpace=wrap;rounded=0;" vertex="1" parent="1">
          <mxGeometry x="1094.5" y="-1520" width="65" height="30" as="geometry" />
        </mxCell>
        <mxCell id="LtLd2qzQEVTSshfY8u-q-156" value="" style="shape=providedRequiredInterface;html=1;verticalLabelPosition=bottom;sketch=0;rotation=-180;" vertex="1" parent="1">
          <mxGeometry x="1108.5" y="-1450" width="30" height="30" as="geometry" />
        </mxCell>
        <mxCell id="LtLd2qzQEVTSshfY8u-q-159" value="" style="endArrow=none;html=1;rounded=0;fontSize=12;startSize=8;endSize=8;curved=1;" edge="1" parent="1">
          <mxGeometry width="50" height="50" relative="1" as="geometry">
            <mxPoint x="1138.5" y="-1435" as="sourcePoint" />
            <mxPoint x="1158.5" y="-1435" as="targetPoint" />
          </mxGeometry>
        </mxCell>
        <mxCell id="LtLd2qzQEVTSshfY8u-q-160" value="" style="shape=providedRequiredInterface;html=1;verticalLabelPosition=bottom;sketch=0;rotation=-180;" vertex="1" parent="1">
          <mxGeometry x="1108.5" y="-1360" width="30" height="30" as="geometry" />
        </mxCell>
        <mxCell id="LtLd2qzQEVTSshfY8u-q-161" value="" style="endArrow=none;html=1;rounded=0;fontSize=12;startSize=8;endSize=8;curved=1;" edge="1" parent="1">
          <mxGeometry width="50" height="50" relative="1" as="geometry">
            <mxPoint x="1138.5" y="-1345" as="sourcePoint" />
            <mxPoint x="1158.5" y="-1345" as="targetPoint" />
          </mxGeometry>
        </mxCell>
        <mxCell id="LtLd2qzQEVTSshfY8u-q-162" value="" style="shape=providedRequiredInterface;html=1;verticalLabelPosition=bottom;sketch=0;rotation=-180;" vertex="1" parent="1">
          <mxGeometry x="1108.5" y="-1280" width="30" height="30" as="geometry" />
        </mxCell>
        <mxCell id="LtLd2qzQEVTSshfY8u-q-163" value="" style="endArrow=none;html=1;rounded=0;fontSize=12;startSize=8;endSize=8;curved=1;" edge="1" parent="1">
          <mxGeometry width="50" height="50" relative="1" as="geometry">
            <mxPoint x="1138.5" y="-1265" as="sourcePoint" />
            <mxPoint x="1158.5" y="-1265" as="targetPoint" />
          </mxGeometry>
        </mxCell>
        <mxCell id="LtLd2qzQEVTSshfY8u-q-164" value="Show grid" style="text;html=1;align=center;verticalAlign=middle;whiteSpace=wrap;rounded=0;" vertex="1" parent="1">
          <mxGeometry x="1093.5" y="-1420" width="60" height="30" as="geometry" />
        </mxCell>
        <mxCell id="LtLd2qzQEVTSshfY8u-q-165" value="Colpito" style="text;html=1;align=center;verticalAlign=middle;whiteSpace=wrap;rounded=0;" vertex="1" parent="1">
          <mxGeometry x="1097" y="-1330" width="60" height="30" as="geometry" />
        </mxCell>
        <mxCell id="LtLd2qzQEVTSshfY8u-q-166" value="Mancato" style="text;html=1;align=center;verticalAlign=middle;whiteSpace=wrap;rounded=0;" vertex="1" parent="1">
          <mxGeometry x="1094.5" y="-1250" width="65" height="30" as="geometry" />
        </mxCell>
        <mxCell id="LtLd2qzQEVTSshfY8u-q-167" value="" style="shape=providedRequiredInterface;html=1;verticalLabelPosition=bottom;sketch=0;rotation=-180;" vertex="1" parent="1">
          <mxGeometry x="1108.5" y="-1190" width="30" height="30" as="geometry" />
        </mxCell>
        <mxCell id="LtLd2qzQEVTSshfY8u-q-168" value="" style="endArrow=none;html=1;rounded=0;fontSize=12;startSize=8;endSize=8;curved=1;" edge="1" parent="1">
          <mxGeometry width="50" height="50" relative="1" as="geometry">
            <mxPoint x="1138.5" y="-1175" as="sourcePoint" />
            <mxPoint x="1158.5" y="-1175" as="targetPoint" />
          </mxGeometry>
        </mxCell>
        <mxCell id="LtLd2qzQEVTSshfY8u-q-169" value="Nave" style="text;html=1;align=center;verticalAlign=middle;whiteSpace=wrap;rounded=0;" vertex="1" parent="1">
          <mxGeometry x="1094.5" y="-1160" width="65" height="30" as="geometry" />
        </mxCell>
        <mxCell id="LtLd2qzQEVTSshfY8u-q-170" value="" style="shape=providedRequiredInterface;html=1;verticalLabelPosition=bottom;sketch=0;rotation=-180;" vertex="1" parent="1">
          <mxGeometry x="1108.5" y="-1110" width="30" height="30" as="geometry" />
        </mxCell>
        <mxCell id="LtLd2qzQEVTSshfY8u-q-171" value="" style="endArrow=none;html=1;rounded=0;fontSize=12;startSize=8;endSize=8;curved=1;" edge="1" parent="1">
          <mxGeometry width="50" height="50" relative="1" as="geometry">
            <mxPoint x="1138.5" y="-1095" as="sourcePoint" />
            <mxPoint x="1158.5" y="-1095" as="targetPoint" />
          </mxGeometry>
        </mxCell>
        <mxCell id="LtLd2qzQEVTSshfY8u-q-172" value="Vuoto" style="text;html=1;align=center;verticalAlign=middle;whiteSpace=wrap;rounded=0;" vertex="1" parent="1">
          <mxGeometry x="1094.5" y="-1080" width="65" height="30" as="geometry" />
        </mxCell>
        <mxCell id="LtLd2qzQEVTSshfY8u-q-173" value="" style="shape=providedRequiredInterface;html=1;verticalLabelPosition=bottom;sketch=0;rotation=-180;" vertex="1" parent="1">
          <mxGeometry x="1108.5" y="-1010" width="30" height="30" as="geometry" />
        </mxCell>
        <mxCell id="LtLd2qzQEVTSshfY8u-q-176" value="" style="endArrow=none;html=1;rounded=0;fontSize=12;startSize=8;endSize=8;curved=1;" edge="1" parent="1">
          <mxGeometry width="50" height="50" relative="1" as="geometry">
            <mxPoint x="1138.5" y="-995" as="sourcePoint" />
            <mxPoint x="1158.5" y="-995" as="targetPoint" />
          </mxGeometry>
        </mxCell>
        <mxCell id="LtLd2qzQEVTSshfY8u-q-177" value="" style="shape=providedRequiredInterface;html=1;verticalLabelPosition=bottom;sketch=0;rotation=-180;" vertex="1" parent="1">
          <mxGeometry x="1108.5" y="-920" width="30" height="30" as="geometry" />
        </mxCell>
        <mxCell id="LtLd2qzQEVTSshfY8u-q-178" value="" style="endArrow=none;html=1;rounded=0;fontSize=12;startSize=8;endSize=8;curved=1;" edge="1" parent="1">
          <mxGeometry width="50" height="50" relative="1" as="geometry">
            <mxPoint x="1138.5" y="-905" as="sourcePoint" />
            <mxPoint x="1158.5" y="-905" as="targetPoint" />
          </mxGeometry>
        </mxCell>
        <mxCell id="LtLd2qzQEVTSshfY8u-q-181" value="Affondato" style="text;html=1;align=center;verticalAlign=middle;whiteSpace=wrap;rounded=0;" vertex="1" parent="1">
          <mxGeometry x="1093.5" y="-980" width="60" height="30" as="geometry" />
        </mxCell>
        <mxCell id="LtLd2qzQEVTSshfY8u-q-182" value="Grid size" style="text;html=1;align=center;verticalAlign=middle;whiteSpace=wrap;rounded=0;" vertex="1" parent="1">
          <mxGeometry x="1097" y="-890" width="60" height="30" as="geometry" />
        </mxCell>
        <mxCell id="LtLd2qzQEVTSshfY8u-q-191" value="" style="shape=providedRequiredInterface;html=1;verticalLabelPosition=bottom;sketch=0;rotation=-180;" vertex="1" parent="1">
          <mxGeometry x="1527" y="-1359" width="30" height="30" as="geometry" />
        </mxCell>
        <mxCell id="LtLd2qzQEVTSshfY8u-q-194" value="" style="endArrow=none;html=1;rounded=0;fontSize=12;startSize=8;endSize=8;curved=1;" edge="1" parent="1">
          <mxGeometry width="50" height="50" relative="1" as="geometry">
            <mxPoint x="1557" y="-1344" as="sourcePoint" />
            <mxPoint x="1577" y="-1344" as="targetPoint" />
          </mxGeometry>
        </mxCell>
        <mxCell id="LtLd2qzQEVTSshfY8u-q-195" value="" style="shape=providedRequiredInterface;html=1;verticalLabelPosition=bottom;sketch=0;rotation=-180;" vertex="1" parent="1">
          <mxGeometry x="1527" y="-1269" width="30" height="30" as="geometry" />
        </mxCell>
        <mxCell id="LtLd2qzQEVTSshfY8u-q-196" value="" style="endArrow=none;html=1;rounded=0;fontSize=12;startSize=8;endSize=8;curved=1;" edge="1" parent="1">
          <mxGeometry width="50" height="50" relative="1" as="geometry">
            <mxPoint x="1557" y="-1254" as="sourcePoint" />
            <mxPoint x="1577" y="-1254" as="targetPoint" />
          </mxGeometry>
        </mxCell>
        <mxCell id="LtLd2qzQEVTSshfY8u-q-197" value="" style="shape=providedRequiredInterface;html=1;verticalLabelPosition=bottom;sketch=0;rotation=-180;" vertex="1" parent="1">
          <mxGeometry x="1527" y="-1189" width="30" height="30" as="geometry" />
        </mxCell>
        <mxCell id="LtLd2qzQEVTSshfY8u-q-198" value="" style="endArrow=none;html=1;rounded=0;fontSize=12;startSize=8;endSize=8;curved=1;" edge="1" parent="1">
          <mxGeometry width="50" height="50" relative="1" as="geometry">
            <mxPoint x="1557" y="-1174" as="sourcePoint" />
            <mxPoint x="1577" y="-1174" as="targetPoint" />
          </mxGeometry>
        </mxCell>
        <mxCell id="LtLd2qzQEVTSshfY8u-q-199" value="Set ship lengths" style="text;html=1;align=center;verticalAlign=middle;whiteSpace=wrap;rounded=0;" vertex="1" parent="1">
          <mxGeometry x="1512" y="-1329" width="60" height="30" as="geometry" />
        </mxCell>
        <mxCell id="LtLd2qzQEVTSshfY8u-q-200" value="Set user base" style="text;html=1;align=center;verticalAlign=middle;whiteSpace=wrap;rounded=0;" vertex="1" parent="1">
          <mxGeometry x="1515.5" y="-1239" width="60" height="30" as="geometry" />
        </mxCell>
        <mxCell id="LtLd2qzQEVTSshfY8u-q-201" value="Set grid size" style="text;html=1;align=center;verticalAlign=middle;whiteSpace=wrap;rounded=0;" vertex="1" parent="1">
          <mxGeometry x="1513" y="-1159" width="65" height="30" as="geometry" />
        </mxCell>
        <mxCell id="LtLd2qzQEVTSshfY8u-q-202" value="" style="shape=providedRequiredInterface;html=1;verticalLabelPosition=bottom;sketch=0;rotation=-180;" vertex="1" parent="1">
          <mxGeometry x="1527" y="-1099" width="30" height="30" as="geometry" />
        </mxCell>
        <mxCell id="LtLd2qzQEVTSshfY8u-q-203" value="" style="endArrow=none;html=1;rounded=0;fontSize=12;startSize=8;endSize=8;curved=1;" edge="1" parent="1">
          <mxGeometry width="50" height="50" relative="1" as="geometry">
            <mxPoint x="1557" y="-1084" as="sourcePoint" />
            <mxPoint x="1577" y="-1084" as="targetPoint" />
          </mxGeometry>
        </mxCell>
        <mxCell id="LtLd2qzQEVTSshfY8u-q-204" value="Set automatic ships" style="text;html=1;align=center;verticalAlign=middle;whiteSpace=wrap;rounded=0;" vertex="1" parent="1">
          <mxGeometry x="1513" y="-1060" width="65" height="30" as="geometry" />
        </mxCell>
        <mxCell id="LtLd2qzQEVTSshfY8u-q-205" value="" style="shape=providedRequiredInterface;html=1;verticalLabelPosition=bottom;sketch=0;rotation=-180;" vertex="1" parent="1">
          <mxGeometry x="1527" y="-1019" width="30" height="30" as="geometry" />
        </mxCell>
        <mxCell id="LtLd2qzQEVTSshfY8u-q-206" value="" style="endArrow=none;html=1;rounded=0;fontSize=12;startSize=8;endSize=8;curved=1;" edge="1" parent="1">
          <mxGeometry width="50" height="50" relative="1" as="geometry">
            <mxPoint x="1557" y="-1004" as="sourcePoint" />
            <mxPoint x="1577" y="-1004" as="targetPoint" />
          </mxGeometry>
        </mxCell>
        <mxCell id="LtLd2qzQEVTSshfY8u-q-207" value="Set user ships" style="text;html=1;align=center;verticalAlign=middle;whiteSpace=wrap;rounded=0;" vertex="1" parent="1">
          <mxGeometry x="1513" y="-989" width="65" height="30" as="geometry" />
        </mxCell>
        <mxCell id="LtLd2qzQEVTSshfY8u-q-208" value="" style="shape=providedRequiredInterface;html=1;verticalLabelPosition=bottom;sketch=0;rotation=-180;" vertex="1" parent="1">
          <mxGeometry x="1527" y="-919" width="30" height="30" as="geometry" />
        </mxCell>
        <mxCell id="LtLd2qzQEVTSshfY8u-q-209" value="" style="endArrow=none;html=1;rounded=0;fontSize=12;startSize=8;endSize=8;curved=1;" edge="1" parent="1">
          <mxGeometry width="50" height="50" relative="1" as="geometry">
            <mxPoint x="1557" y="-904" as="sourcePoint" />
            <mxPoint x="1577" y="-904" as="targetPoint" />
          </mxGeometry>
        </mxCell>
        <mxCell id="LtLd2qzQEVTSshfY8u-q-210" value="" style="shape=providedRequiredInterface;html=1;verticalLabelPosition=bottom;sketch=0;rotation=-180;" vertex="1" parent="1">
          <mxGeometry x="1527" y="-829" width="30" height="30" as="geometry" />
        </mxCell>
        <mxCell id="LtLd2qzQEVTSshfY8u-q-211" value="" style="endArrow=none;html=1;rounded=0;fontSize=12;startSize=8;endSize=8;curved=1;" edge="1" parent="1">
          <mxGeometry width="50" height="50" relative="1" as="geometry">
            <mxPoint x="1557" y="-814" as="sourcePoint" />
            <mxPoint x="1577" y="-814" as="targetPoint" />
          </mxGeometry>
        </mxCell>
        <mxCell id="LtLd2qzQEVTSshfY8u-q-212" value="" style="shape=providedRequiredInterface;html=1;verticalLabelPosition=bottom;sketch=0;rotation=-180;" vertex="1" parent="1">
          <mxGeometry x="1527" y="-749" width="30" height="30" as="geometry" />
        </mxCell>
        <mxCell id="LtLd2qzQEVTSshfY8u-q-213" value="" style="endArrow=none;html=1;rounded=0;fontSize=12;startSize=8;endSize=8;curved=1;" edge="1" parent="1">
          <mxGeometry width="50" height="50" relative="1" as="geometry">
            <mxPoint x="1557" y="-734" as="sourcePoint" />
            <mxPoint x="1577" y="-734" as="targetPoint" />
          </mxGeometry>
        </mxCell>
        <mxCell id="LtLd2qzQEVTSshfY8u-q-214" value="Set user grid" style="text;html=1;align=center;verticalAlign=middle;whiteSpace=wrap;rounded=0;" vertex="1" parent="1">
          <mxGeometry x="1512" y="-889" width="60" height="30" as="geometry" />
        </mxCell>
        <mxCell id="LtLd2qzQEVTSshfY8u-q-215" value="Set seed" style="text;html=1;align=center;verticalAlign=middle;whiteSpace=wrap;rounded=0;" vertex="1" parent="1">
          <mxGeometry x="1515.5" y="-799" width="60" height="30" as="geometry" />
        </mxCell>
        <mxCell id="LtLd2qzQEVTSshfY8u-q-216" value="Show message" style="text;html=1;align=center;verticalAlign=middle;whiteSpace=wrap;rounded=0;" vertex="1" parent="1">
          <mxGeometry x="1513" y="-719" width="65" height="30" as="geometry" />
        </mxCell>
        <mxCell id="LtLd2qzQEVTSshfY8u-q-217" value="" style="shape=providedRequiredInterface;html=1;verticalLabelPosition=bottom;sketch=0;rotation=-180;" vertex="1" parent="1">
          <mxGeometry x="1527" y="-659" width="30" height="30" as="geometry" />
        </mxCell>
        <mxCell id="LtLd2qzQEVTSshfY8u-q-218" value="" style="endArrow=none;html=1;rounded=0;fontSize=12;startSize=8;endSize=8;curved=1;" edge="1" parent="1">
          <mxGeometry width="50" height="50" relative="1" as="geometry">
            <mxPoint x="1557" y="-644" as="sourcePoint" />
            <mxPoint x="1577" y="-644" as="targetPoint" />
          </mxGeometry>
        </mxCell>
        <mxCell id="LtLd2qzQEVTSshfY8u-q-219" value="Show error" style="text;html=1;align=center;verticalAlign=middle;whiteSpace=wrap;rounded=0;" vertex="1" parent="1">
          <mxGeometry x="1513" y="-629" width="65" height="30" as="geometry" />
        </mxCell>
        <mxCell id="LtLd2qzQEVTSshfY8u-q-220" value="" style="shape=providedRequiredInterface;html=1;verticalLabelPosition=bottom;sketch=0;rotation=-180;" vertex="1" parent="1">
          <mxGeometry x="1527" y="-579" width="30" height="30" as="geometry" />
        </mxCell>
        <mxCell id="LtLd2qzQEVTSshfY8u-q-221" value="" style="endArrow=none;html=1;rounded=0;fontSize=12;startSize=8;endSize=8;curved=1;" edge="1" parent="1">
          <mxGeometry width="50" height="50" relative="1" as="geometry">
            <mxPoint x="1557" y="-564" as="sourcePoint" />
            <mxPoint x="1577" y="-564" as="targetPoint" />
          </mxGeometry>
        </mxCell>
        <mxCell id="LtLd2qzQEVTSshfY8u-q-222" value="Automatic&lt;div&gt;ships&lt;/div&gt;" style="text;html=1;align=center;verticalAlign=middle;whiteSpace=wrap;rounded=0;" vertex="1" parent="1">
          <mxGeometry x="1513" y="-549" width="65" height="30" as="geometry" />
        </mxCell>
        <mxCell id="LtLd2qzQEVTSshfY8u-q-223" value="" style="shape=providedRequiredInterface;html=1;verticalLabelPosition=bottom;sketch=0;rotation=-180;" vertex="1" parent="1">
          <mxGeometry x="1527" y="-479" width="30" height="30" as="geometry" />
        </mxCell>
        <mxCell id="LtLd2qzQEVTSshfY8u-q-224" value="" style="endArrow=none;html=1;rounded=0;fontSize=12;startSize=8;endSize=8;curved=1;" edge="1" parent="1">
          <mxGeometry width="50" height="50" relative="1" as="geometry">
            <mxPoint x="1557" y="-464" as="sourcePoint" />
            <mxPoint x="1577" y="-464" as="targetPoint" />
          </mxGeometry>
        </mxCell>
        <mxCell id="LtLd2qzQEVTSshfY8u-q-225" value="" style="shape=providedRequiredInterface;html=1;verticalLabelPosition=bottom;sketch=0;rotation=-180;" vertex="1" parent="1">
          <mxGeometry x="1527" y="-389" width="30" height="30" as="geometry" />
        </mxCell>
        <mxCell id="LtLd2qzQEVTSshfY8u-q-226" value="" style="endArrow=none;html=1;rounded=0;fontSize=12;startSize=8;endSize=8;curved=1;" edge="1" parent="1">
          <mxGeometry width="50" height="50" relative="1" as="geometry">
            <mxPoint x="1557" y="-374" as="sourcePoint" />
            <mxPoint x="1577" y="-374" as="targetPoint" />
          </mxGeometry>
        </mxCell>
        <mxCell id="LtLd2qzQEVTSshfY8u-q-227" value="User&lt;div&gt;ships&lt;/div&gt;" style="text;html=1;align=center;verticalAlign=middle;whiteSpace=wrap;rounded=0;" vertex="1" parent="1">
          <mxGeometry x="1512" y="-449" width="60" height="30" as="geometry" />
        </mxCell>
        <mxCell id="LtLd2qzQEVTSshfY8u-q-228" value="Automatic grid" style="text;html=1;align=center;verticalAlign=middle;whiteSpace=wrap;rounded=0;" vertex="1" parent="1">
          <mxGeometry x="1515.5" y="-359" width="60" height="30" as="geometry" />
        </mxCell>
        <mxCell id="LtLd2qzQEVTSshfY8u-q-230" value="" style="shape=providedRequiredInterface;html=1;verticalLabelPosition=bottom;sketch=0;rotation=-180;" vertex="1" parent="1">
          <mxGeometry x="374" y="-2419" width="30" height="30" as="geometry" />
        </mxCell>
        <mxCell id="LtLd2qzQEVTSshfY8u-q-231" value="&lt;b&gt;Tutorial.m&lt;/b&gt;" style="html=1;dropTarget=0;whiteSpace=wrap;" vertex="1" parent="1">
          <mxGeometry x="424" y="-2439" width="226" height="360" as="geometry" />
        </mxCell>
        <mxCell id="LtLd2qzQEVTSshfY8u-q-232" value="" style="shape=module;jettyWidth=8;jettyHeight=4;" vertex="1" parent="LtLd2qzQEVTSshfY8u-q-231">
          <mxGeometry x="1" width="20" height="20" relative="1" as="geometry">
            <mxPoint x="-27" y="7" as="offset" />
          </mxGeometry>
        </mxCell>
        <mxCell id="LtLd2qzQEVTSshfY8u-q-233" value="" style="endArrow=none;html=1;rounded=0;fontSize=12;startSize=8;endSize=8;curved=1;" edge="1" parent="1">
          <mxGeometry width="50" height="50" relative="1" as="geometry">
            <mxPoint x="404" y="-2404" as="sourcePoint" />
            <mxPoint x="424" y="-2404" as="targetPoint" />
          </mxGeometry>
        </mxCell>
        <mxCell id="LtLd2qzQEVTSshfY8u-q-234" value="" style="shape=providedRequiredInterface;html=1;verticalLabelPosition=bottom;sketch=0;rotation=-180;" vertex="1" parent="1">
          <mxGeometry x="374" y="-2329" width="30" height="30" as="geometry" />
        </mxCell>
        <mxCell id="LtLd2qzQEVTSshfY8u-q-235" value="" style="endArrow=none;html=1;rounded=0;fontSize=12;startSize=8;endSize=8;curved=1;" edge="1" parent="1">
          <mxGeometry width="50" height="50" relative="1" as="geometry">
            <mxPoint x="404" y="-2314" as="sourcePoint" />
            <mxPoint x="424" y="-2314" as="targetPoint" />
          </mxGeometry>
        </mxCell>
        <mxCell id="LtLd2qzQEVTSshfY8u-q-236" value="" style="shape=providedRequiredInterface;html=1;verticalLabelPosition=bottom;sketch=0;rotation=-180;" vertex="1" parent="1">
          <mxGeometry x="374" y="-2249" width="30" height="30" as="geometry" />
        </mxCell>
        <mxCell id="LtLd2qzQEVTSshfY8u-q-237" value="" style="endArrow=none;html=1;rounded=0;fontSize=12;startSize=8;endSize=8;curved=1;" edge="1" parent="1">
          <mxGeometry width="50" height="50" relative="1" as="geometry">
            <mxPoint x="404" y="-2234" as="sourcePoint" />
            <mxPoint x="424" y="-2234" as="targetPoint" />
          </mxGeometry>
        </mxCell>
        <mxCell id="LtLd2qzQEVTSshfY8u-q-238" value="Create tutorial" style="text;html=1;align=center;verticalAlign=middle;whiteSpace=wrap;rounded=0;" vertex="1" parent="1">
          <mxGeometry x="359" y="-2389" width="60" height="30" as="geometry" />
        </mxCell>
        <mxCell id="LtLd2qzQEVTSshfY8u-q-239" value="Binary section" style="text;html=1;align=center;verticalAlign=middle;whiteSpace=wrap;rounded=0;" vertex="1" parent="1">
          <mxGeometry x="362.5" y="-2299" width="60" height="30" as="geometry" />
        </mxCell>
        <mxCell id="LtLd2qzQEVTSshfY8u-q-240" value="Octal section" style="text;html=1;align=center;verticalAlign=middle;whiteSpace=wrap;rounded=0;" vertex="1" parent="1">
          <mxGeometry x="360" y="-2219" width="65" height="30" as="geometry" />
        </mxCell>
        <mxCell id="LtLd2qzQEVTSshfY8u-q-241" value="" style="shape=providedRequiredInterface;html=1;verticalLabelPosition=bottom;sketch=0;rotation=-180;" vertex="1" parent="1">
          <mxGeometry x="374" y="-2159" width="30" height="30" as="geometry" />
        </mxCell>
        <mxCell id="LtLd2qzQEVTSshfY8u-q-242" value="" style="endArrow=none;html=1;rounded=0;fontSize=12;startSize=8;endSize=8;curved=1;" edge="1" parent="1">
          <mxGeometry width="50" height="50" relative="1" as="geometry">
            <mxPoint x="404" y="-2144" as="sourcePoint" />
            <mxPoint x="424" y="-2144" as="targetPoint" />
          </mxGeometry>
        </mxCell>
        <mxCell id="LtLd2qzQEVTSshfY8u-q-243" value="Hex Section" style="text;html=1;align=center;verticalAlign=middle;whiteSpace=wrap;rounded=0;" vertex="1" parent="1">
          <mxGeometry x="360" y="-2129" width="65" height="30" as="geometry" />
        </mxCell>
        <mxCell id="LtLd2qzQEVTSshfY8u-q-268" value="" style="shape=providedRequiredInterface;html=1;verticalLabelPosition=bottom;sketch=0;rotation=-180;" vertex="1" parent="1">
          <mxGeometry x="1527" y="-2419" width="30" height="30" as="geometry" />
        </mxCell>
        <mxCell id="LtLd2qzQEVTSshfY8u-q-269" value="&lt;b&gt;Interaction.m&lt;/b&gt;" style="html=1;dropTarget=0;whiteSpace=wrap;" vertex="1" parent="1">
          <mxGeometry x="1577" y="-2439" width="226" height="2569" as="geometry" />
        </mxCell>
        <mxCell id="LtLd2qzQEVTSshfY8u-q-270" value="" style="shape=module;jettyWidth=8;jettyHeight=4;" vertex="1" parent="LtLd2qzQEVTSshfY8u-q-269">
          <mxGeometry x="1" width="20" height="20" relative="1" as="geometry">
            <mxPoint x="-27" y="7" as="offset" />
          </mxGeometry>
        </mxCell>
        <mxCell id="LtLd2qzQEVTSshfY8u-q-271" value="" style="endArrow=none;html=1;rounded=0;fontSize=12;startSize=8;endSize=8;curved=1;" edge="1" parent="1">
          <mxGeometry width="50" height="50" relative="1" as="geometry">
            <mxPoint x="1557" y="-2404" as="sourcePoint" />
            <mxPoint x="1577" y="-2404" as="targetPoint" />
          </mxGeometry>
        </mxCell>
        <mxCell id="LtLd2qzQEVTSshfY8u-q-272" value="" style="shape=providedRequiredInterface;html=1;verticalLabelPosition=bottom;sketch=0;rotation=-180;" vertex="1" parent="1">
          <mxGeometry x="1527" y="-2329" width="30" height="30" as="geometry" />
        </mxCell>
        <mxCell id="LtLd2qzQEVTSshfY8u-q-273" value="" style="endArrow=none;html=1;rounded=0;fontSize=12;startSize=8;endSize=8;curved=1;" edge="1" parent="1">
          <mxGeometry width="50" height="50" relative="1" as="geometry">
            <mxPoint x="1557" y="-2314" as="sourcePoint" />
            <mxPoint x="1577" y="-2314" as="targetPoint" />
          </mxGeometry>
        </mxCell>
        <mxCell id="LtLd2qzQEVTSshfY8u-q-274" value="" style="shape=providedRequiredInterface;html=1;verticalLabelPosition=bottom;sketch=0;rotation=-180;" vertex="1" parent="1">
          <mxGeometry x="1527" y="-2249" width="30" height="30" as="geometry" />
        </mxCell>
        <mxCell id="LtLd2qzQEVTSshfY8u-q-275" value="" style="endArrow=none;html=1;rounded=0;fontSize=12;startSize=8;endSize=8;curved=1;" edge="1" parent="1">
          <mxGeometry width="50" height="50" relative="1" as="geometry">
            <mxPoint x="1557" y="-2234" as="sourcePoint" />
            <mxPoint x="1577" y="-2234" as="targetPoint" />
          </mxGeometry>
        </mxCell>
        <mxCell id="LtLd2qzQEVTSshfY8u-q-276" value="Ask seed input" style="text;html=1;align=center;verticalAlign=middle;whiteSpace=wrap;rounded=0;" vertex="1" parent="1">
          <mxGeometry x="1512" y="-2389" width="60" height="30" as="geometry" />
        </mxCell>
        <mxCell id="LtLd2qzQEVTSshfY8u-q-277" value="Ask base choice" style="text;html=1;align=center;verticalAlign=middle;whiteSpace=wrap;rounded=0;" vertex="1" parent="1">
          <mxGeometry x="1515.5" y="-2299" width="60" height="30" as="geometry" />
        </mxCell>
        <mxCell id="LtLd2qzQEVTSshfY8u-q-278" value="Is base" style="text;html=1;align=center;verticalAlign=middle;whiteSpace=wrap;rounded=0;" vertex="1" parent="1">
          <mxGeometry x="1513" y="-2219" width="65" height="30" as="geometry" />
        </mxCell>
        <mxCell id="LtLd2qzQEVTSshfY8u-q-279" value="" style="shape=providedRequiredInterface;html=1;verticalLabelPosition=bottom;sketch=0;rotation=-180;" vertex="1" parent="1">
          <mxGeometry x="1527" y="-2159" width="30" height="30" as="geometry" />
        </mxCell>
        <mxCell id="LtLd2qzQEVTSshfY8u-q-280" value="" style="endArrow=none;html=1;rounded=0;fontSize=12;startSize=8;endSize=8;curved=1;" edge="1" parent="1">
          <mxGeometry width="50" height="50" relative="1" as="geometry">
            <mxPoint x="1557" y="-2144" as="sourcePoint" />
            <mxPoint x="1577" y="-2144" as="targetPoint" />
          </mxGeometry>
        </mxCell>
        <mxCell id="LtLd2qzQEVTSshfY8u-q-281" value="Is seed" style="text;html=1;align=center;verticalAlign=middle;whiteSpace=wrap;rounded=0;" vertex="1" parent="1">
          <mxGeometry x="1513" y="-2129" width="65" height="30" as="geometry" />
        </mxCell>
        <mxCell id="LtLd2qzQEVTSshfY8u-q-282" value="" style="shape=providedRequiredInterface;html=1;verticalLabelPosition=bottom;sketch=0;rotation=-180;" vertex="1" parent="1">
          <mxGeometry x="1527" y="-2079" width="30" height="30" as="geometry" />
        </mxCell>
        <mxCell id="LtLd2qzQEVTSshfY8u-q-283" value="" style="endArrow=none;html=1;rounded=0;fontSize=12;startSize=8;endSize=8;curved=1;" edge="1" parent="1">
          <mxGeometry width="50" height="50" relative="1" as="geometry">
            <mxPoint x="1557" y="-2064" as="sourcePoint" />
            <mxPoint x="1577" y="-2064" as="targetPoint" />
          </mxGeometry>
        </mxCell>
        <mxCell id="LtLd2qzQEVTSshfY8u-q-284" value="Help user" style="text;html=1;align=center;verticalAlign=middle;whiteSpace=wrap;rounded=0;" vertex="1" parent="1">
          <mxGeometry x="1513" y="-2049" width="65" height="30" as="geometry" />
        </mxCell>
        <mxCell id="LtLd2qzQEVTSshfY8u-q-285" value="" style="shape=providedRequiredInterface;html=1;verticalLabelPosition=bottom;sketch=0;rotation=-180;" vertex="1" parent="1">
          <mxGeometry x="1527" y="-1979" width="30" height="30" as="geometry" />
        </mxCell>
        <mxCell id="LtLd2qzQEVTSshfY8u-q-286" value="" style="endArrow=none;html=1;rounded=0;fontSize=12;startSize=8;endSize=8;curved=1;" edge="1" parent="1">
          <mxGeometry width="50" height="50" relative="1" as="geometry">
            <mxPoint x="1557" y="-1964" as="sourcePoint" />
            <mxPoint x="1577" y="-1964" as="targetPoint" />
          </mxGeometry>
        </mxCell>
        <mxCell id="LtLd2qzQEVTSshfY8u-q-287" value="" style="shape=providedRequiredInterface;html=1;verticalLabelPosition=bottom;sketch=0;rotation=-180;" vertex="1" parent="1">
          <mxGeometry x="1527" y="-1889" width="30" height="30" as="geometry" />
        </mxCell>
        <mxCell id="LtLd2qzQEVTSshfY8u-q-288" value="" style="endArrow=none;html=1;rounded=0;fontSize=12;startSize=8;endSize=8;curved=1;" edge="1" parent="1">
          <mxGeometry width="50" height="50" relative="1" as="geometry">
            <mxPoint x="1557" y="-1874" as="sourcePoint" />
            <mxPoint x="1577" y="-1874" as="targetPoint" />
          </mxGeometry>
        </mxCell>
        <mxCell id="LtLd2qzQEVTSshfY8u-q-289" value="" style="shape=providedRequiredInterface;html=1;verticalLabelPosition=bottom;sketch=0;rotation=-180;" vertex="1" parent="1">
          <mxGeometry x="1527" y="-1809" width="30" height="30" as="geometry" />
        </mxCell>
        <mxCell id="LtLd2qzQEVTSshfY8u-q-290" value="" style="endArrow=none;html=1;rounded=0;fontSize=12;startSize=8;endSize=8;curved=1;" edge="1" parent="1">
          <mxGeometry width="50" height="50" relative="1" as="geometry">
            <mxPoint x="1557" y="-1794" as="sourcePoint" />
            <mxPoint x="1577" y="-1794" as="targetPoint" />
          </mxGeometry>
        </mxCell>
        <mxCell id="LtLd2qzQEVTSshfY8u-q-291" value="Place user ship" style="text;html=1;align=center;verticalAlign=middle;whiteSpace=wrap;rounded=0;" vertex="1" parent="1">
          <mxGeometry x="1512" y="-1949" width="60" height="30" as="geometry" />
        </mxCell>
        <mxCell id="LtLd2qzQEVTSshfY8u-q-292" value="Get user ships" style="text;html=1;align=center;verticalAlign=middle;whiteSpace=wrap;rounded=0;" vertex="1" parent="1">
          <mxGeometry x="1515.5" y="-1859" width="60" height="30" as="geometry" />
        </mxCell>
        <mxCell id="LtLd2qzQEVTSshfY8u-q-293" value="Get user grid" style="text;html=1;align=center;verticalAlign=middle;whiteSpace=wrap;rounded=0;" vertex="1" parent="1">
          <mxGeometry x="1513" y="-1779" width="65" height="30" as="geometry" />
        </mxCell>
        <mxCell id="LtLd2qzQEVTSshfY8u-q-294" value="" style="shape=providedRequiredInterface;html=1;verticalLabelPosition=bottom;sketch=0;rotation=-180;" vertex="1" parent="1">
          <mxGeometry x="1527" y="-1719" width="30" height="30" as="geometry" />
        </mxCell>
        <mxCell id="LtLd2qzQEVTSshfY8u-q-295" value="" style="endArrow=none;html=1;rounded=0;fontSize=12;startSize=8;endSize=8;curved=1;" edge="1" parent="1">
          <mxGeometry width="50" height="50" relative="1" as="geometry">
            <mxPoint x="1557" y="-1704" as="sourcePoint" />
            <mxPoint x="1577" y="-1704" as="targetPoint" />
          </mxGeometry>
        </mxCell>
        <mxCell id="LtLd2qzQEVTSshfY8u-q-296" value="Get remaining ship lengths" style="text;html=1;align=center;verticalAlign=middle;whiteSpace=wrap;rounded=0;" vertex="1" parent="1">
          <mxGeometry x="1495" y="-1689" width="83" height="30" as="geometry" />
        </mxCell>
        <mxCell id="LtLd2qzQEVTSshfY8u-q-297" value="" style="shape=providedRequiredInterface;html=1;verticalLabelPosition=bottom;sketch=0;rotation=-180;" vertex="1" parent="1">
          <mxGeometry x="1527" y="-1639" width="30" height="30" as="geometry" />
        </mxCell>
        <mxCell id="LtLd2qzQEVTSshfY8u-q-298" value="" style="endArrow=none;html=1;rounded=0;fontSize=12;startSize=8;endSize=8;curved=1;" edge="1" parent="1">
          <mxGeometry width="50" height="50" relative="1" as="geometry">
            <mxPoint x="1557" y="-1624" as="sourcePoint" />
            <mxPoint x="1577" y="-1624" as="targetPoint" />
          </mxGeometry>
        </mxCell>
        <mxCell id="LtLd2qzQEVTSshfY8u-q-299" value="Get difficulty levels" style="text;html=1;align=center;verticalAlign=middle;whiteSpace=wrap;rounded=0;" vertex="1" parent="1">
          <mxGeometry x="1505" y="-1609" width="73" height="30" as="geometry" />
        </mxCell>
        <mxCell id="LtLd2qzQEVTSshfY8u-q-300" value="" style="shape=providedRequiredInterface;html=1;verticalLabelPosition=bottom;sketch=0;rotation=-180;" vertex="1" parent="1">
          <mxGeometry x="1527" y="-1539" width="30" height="30" as="geometry" />
        </mxCell>
        <mxCell id="LtLd2qzQEVTSshfY8u-q-301" value="" style="endArrow=none;html=1;rounded=0;fontSize=12;startSize=8;endSize=8;curved=1;" edge="1" parent="1">
          <mxGeometry width="50" height="50" relative="1" as="geometry">
            <mxPoint x="1557" y="-1524" as="sourcePoint" />
            <mxPoint x="1577" y="-1524" as="targetPoint" />
          </mxGeometry>
        </mxCell>
        <mxCell id="LtLd2qzQEVTSshfY8u-q-302" value="" style="shape=providedRequiredInterface;html=1;verticalLabelPosition=bottom;sketch=0;rotation=-180;" vertex="1" parent="1">
          <mxGeometry x="1527" y="-1449" width="30" height="30" as="geometry" />
        </mxCell>
        <mxCell id="LtLd2qzQEVTSshfY8u-q-303" value="" style="endArrow=none;html=1;rounded=0;fontSize=12;startSize=8;endSize=8;curved=1;" edge="1" parent="1">
          <mxGeometry width="50" height="50" relative="1" as="geometry">
            <mxPoint x="1557" y="-1434" as="sourcePoint" />
            <mxPoint x="1577" y="-1434" as="targetPoint" />
          </mxGeometry>
        </mxCell>
        <mxCell id="LtLd2qzQEVTSshfY8u-q-304" value="Get CPU ship" style="text;html=1;align=center;verticalAlign=middle;whiteSpace=wrap;rounded=0;" vertex="1" parent="1">
          <mxGeometry x="1512" y="-1509" width="60" height="30" as="geometry" />
        </mxCell>
        <mxCell id="LtLd2qzQEVTSshfY8u-q-305" value="Get CPU grid" style="text;html=1;align=center;verticalAlign=middle;whiteSpace=wrap;rounded=0;" vertex="1" parent="1">
          <mxGeometry x="1515.5" y="-1419" width="60" height="30" as="geometry" />
        </mxCell>
        <mxCell id="LtLd2qzQEVTSshfY8u-q-306" value="" style="shape=providedRequiredInterface;html=1;verticalLabelPosition=bottom;sketch=0;rotation=-180;" vertex="1" parent="1">
          <mxGeometry x="1527" y="-299" width="30" height="30" as="geometry" />
        </mxCell>
        <mxCell id="LtLd2qzQEVTSshfY8u-q-309" value="" style="endArrow=none;html=1;rounded=0;fontSize=12;startSize=8;endSize=8;curved=1;" edge="1" parent="1">
          <mxGeometry width="50" height="50" relative="1" as="geometry">
            <mxPoint x="1557" y="-284" as="sourcePoint" />
            <mxPoint x="1577" y="-284" as="targetPoint" />
          </mxGeometry>
        </mxCell>
        <mxCell id="LtLd2qzQEVTSshfY8u-q-310" value="" style="shape=providedRequiredInterface;html=1;verticalLabelPosition=bottom;sketch=0;rotation=-180;" vertex="1" parent="1">
          <mxGeometry x="1527" y="-209" width="30" height="30" as="geometry" />
        </mxCell>
        <mxCell id="LtLd2qzQEVTSshfY8u-q-311" value="" style="endArrow=none;html=1;rounded=0;fontSize=12;startSize=8;endSize=8;curved=1;" edge="1" parent="1">
          <mxGeometry width="50" height="50" relative="1" as="geometry">
            <mxPoint x="1557" y="-194" as="sourcePoint" />
            <mxPoint x="1577" y="-194" as="targetPoint" />
          </mxGeometry>
        </mxCell>
        <mxCell id="LtLd2qzQEVTSshfY8u-q-312" value="" style="shape=providedRequiredInterface;html=1;verticalLabelPosition=bottom;sketch=0;rotation=-180;" vertex="1" parent="1">
          <mxGeometry x="1527" y="-129" width="30" height="30" as="geometry" />
        </mxCell>
        <mxCell id="LtLd2qzQEVTSshfY8u-q-313" value="" style="endArrow=none;html=1;rounded=0;fontSize=12;startSize=8;endSize=8;curved=1;" edge="1" parent="1">
          <mxGeometry width="50" height="50" relative="1" as="geometry">
            <mxPoint x="1557" y="-114" as="sourcePoint" />
            <mxPoint x="1577" y="-114" as="targetPoint" />
          </mxGeometry>
        </mxCell>
        <mxCell id="LtLd2qzQEVTSshfY8u-q-314" value="User grid" style="text;html=1;align=center;verticalAlign=middle;whiteSpace=wrap;rounded=0;" vertex="1" parent="1">
          <mxGeometry x="1512" y="-269" width="60" height="30" as="geometry" />
        </mxCell>
        <mxCell id="LtLd2qzQEVTSshfY8u-q-315" value="User base" style="text;html=1;align=center;verticalAlign=middle;whiteSpace=wrap;rounded=0;" vertex="1" parent="1">
          <mxGeometry x="1515.5" y="-179" width="60" height="30" as="geometry" />
        </mxCell>
        <mxCell id="LtLd2qzQEVTSshfY8u-q-316" value="Grid size" style="text;html=1;align=center;verticalAlign=middle;whiteSpace=wrap;rounded=0;" vertex="1" parent="1">
          <mxGeometry x="1513" y="-99" width="65" height="30" as="geometry" />
        </mxCell>
        <mxCell id="LtLd2qzQEVTSshfY8u-q-317" value="" style="shape=providedRequiredInterface;html=1;verticalLabelPosition=bottom;sketch=0;rotation=-180;" vertex="1" parent="1">
          <mxGeometry x="1527" y="-39" width="30" height="30" as="geometry" />
        </mxCell>
        <mxCell id="LtLd2qzQEVTSshfY8u-q-318" value="" style="endArrow=none;html=1;rounded=0;fontSize=12;startSize=8;endSize=8;curved=1;" edge="1" parent="1">
          <mxGeometry width="50" height="50" relative="1" as="geometry">
            <mxPoint x="1557" y="-24" as="sourcePoint" />
            <mxPoint x="1577" y="-24" as="targetPoint" />
          </mxGeometry>
        </mxCell>
        <mxCell id="LtLd2qzQEVTSshfY8u-q-319" value="Seed" style="text;html=1;align=center;verticalAlign=middle;whiteSpace=wrap;rounded=0;" vertex="1" parent="1">
          <mxGeometry x="1513" width="65" height="30" as="geometry" />
        </mxCell>
        <mxCell id="LtLd2qzQEVTSshfY8u-q-320" value="" style="shape=providedRequiredInterface;html=1;verticalLabelPosition=bottom;sketch=0;rotation=-180;" vertex="1" parent="1">
          <mxGeometry x="1527" y="41" width="30" height="30" as="geometry" />
        </mxCell>
        <mxCell id="LtLd2qzQEVTSshfY8u-q-321" value="" style="endArrow=none;html=1;rounded=0;fontSize=12;startSize=8;endSize=8;curved=1;" edge="1" parent="1">
          <mxGeometry width="50" height="50" relative="1" as="geometry">
            <mxPoint x="1557" y="56" as="sourcePoint" />
            <mxPoint x="1577" y="56" as="targetPoint" />
          </mxGeometry>
        </mxCell>
        <mxCell id="LtLd2qzQEVTSshfY8u-q-322" value="Ship lengths" style="text;html=1;align=center;verticalAlign=middle;whiteSpace=wrap;rounded=0;" vertex="1" parent="1">
          <mxGeometry x="1513" y="71" width="65" height="30" as="geometry" />
        </mxCell>
        <mxCell id="LtLd2qzQEVTSshfY8u-q-344" value="" style="shape=providedRequiredInterface;html=1;verticalLabelPosition=bottom;sketch=0;rotation=-180;" vertex="1" parent="1">
          <mxGeometry x="768" y="-2079" width="30" height="30" as="geometry" />
        </mxCell>
        <mxCell id="LtLd2qzQEVTSshfY8u-q-345" value="" style="endArrow=none;html=1;rounded=0;fontSize=12;startSize=8;endSize=8;curved=1;" edge="1" parent="1">
          <mxGeometry width="50" height="50" relative="1" as="geometry">
            <mxPoint x="798" y="-2064" as="sourcePoint" />
            <mxPoint x="818" y="-2064" as="targetPoint" />
          </mxGeometry>
        </mxCell>
        <mxCell id="LtLd2qzQEVTSshfY8u-q-346" value="Reset game" style="text;html=1;align=center;verticalAlign=middle;whiteSpace=wrap;rounded=0;" vertex="1" parent="1">
          <mxGeometry x="754" y="-2049" width="65" height="30" as="geometry" />
        </mxCell>
        <mxCell id="LtLd2qzQEVTSshfY8u-q-348" value="Placement UI" style="text;html=1;align=center;verticalAlign=middle;whiteSpace=wrap;rounded=0;" vertex="1" parent="1">
          <mxGeometry x="362" y="-1976" width="65" height="30" as="geometry" />
        </mxCell>
        <mxCell id="LtLd2qzQEVTSshfY8u-q-351" value="" style="shape=providedRequiredInterface;html=1;verticalLabelPosition=bottom;sketch=0;rotation=-180;" vertex="1" parent="1">
          <mxGeometry x="370" y="-2006" width="30" height="30" as="geometry" />
        </mxCell>
        <mxCell id="LtLd2qzQEVTSshfY8u-q-352" value="" style="endArrow=none;html=1;rounded=0;fontSize=12;startSize=8;endSize=8;curved=1;entryX=0;entryY=0.5;entryDx=0;entryDy=0;" edge="1" parent="1">
          <mxGeometry width="50" height="50" relative="1" as="geometry">
            <mxPoint x="400" y="-1991" as="sourcePoint" />
            <mxPoint x="427" y="-1991" as="targetPoint" />
          </mxGeometry>
        </mxCell>
        <mxCell id="LtLd2qzQEVTSshfY8u-q-353" style="edgeStyle=none;curved=1;rounded=0;orthogonalLoop=1;jettySize=auto;html=1;entryX=0;entryY=0.5;entryDx=0;entryDy=0;fontSize=12;startSize=8;endSize=8;" edge="1" parent="1">
          <mxGeometry relative="1" as="geometry">
            <mxPoint x="427" y="-1991" as="sourcePoint" />
            <mxPoint x="427" y="-1991" as="targetPoint" />
          </mxGeometry>
        </mxCell>
        <mxCell id="LtLd2qzQEVTSshfY8u-q-356" value="" style="endArrow=none;html=1;rounded=0;fontSize=12;startSize=8;endSize=8;curved=1;exitX=1;exitY=0.5;exitDx=0;exitDy=0;" edge="1" parent="1" source="LtLd2qzQEVTSshfY8u-q-86">
          <mxGeometry width="50" height="50" relative="1" as="geometry">
            <mxPoint x="1230" y="-1550" as="sourcePoint" />
            <mxPoint x="330" y="-2074" as="targetPoint" />
          </mxGeometry>
        </mxCell>
        <mxCell id="LtLd2qzQEVTSshfY8u-q-357" value="" style="endArrow=none;html=1;rounded=0;fontSize=12;startSize=8;endSize=8;curved=1;" edge="1" parent="1">
          <mxGeometry width="50" height="50" relative="1" as="geometry">
            <mxPoint x="330" y="-1990" as="sourcePoint" />
            <mxPoint x="330" y="-2404" as="targetPoint" />
          </mxGeometry>
        </mxCell>
        <mxCell id="LtLd2qzQEVTSshfY8u-q-358" value="" style="endArrow=none;html=1;rounded=0;fontSize=12;startSize=8;endSize=8;curved=1;exitX=1;exitY=0.5;exitDx=0;exitDy=0;" edge="1" parent="1">
          <mxGeometry width="50" height="50" relative="1" as="geometry">
            <mxPoint x="330" y="-1989.67" as="sourcePoint" />
            <mxPoint x="370" y="-1990" as="targetPoint" />
          </mxGeometry>
        </mxCell>
        <mxCell id="LtLd2qzQEVTSshfY8u-q-359" value="&lt;b&gt;Main.m&lt;/b&gt;" style="html=1;dropTarget=0;whiteSpace=wrap;" vertex="1" parent="1">
          <mxGeometry x="424" y="-2050" width="226" height="120" as="geometry" />
        </mxCell>
        <mxCell id="LtLd2qzQEVTSshfY8u-q-360" value="" style="shape=module;jettyWidth=8;jettyHeight=4;" vertex="1" parent="LtLd2qzQEVTSshfY8u-q-359">
          <mxGeometry x="1" width="20" height="20" relative="1" as="geometry">
            <mxPoint x="-27" y="7" as="offset" />
          </mxGeometry>
        </mxCell>
        <mxCell id="LtLd2qzQEVTSshfY8u-q-361" value="" style="endArrow=none;html=1;rounded=0;fontSize=12;startSize=8;endSize=8;curved=1;" edge="1" parent="1">
          <mxGeometry width="50" height="50" relative="1" as="geometry">
            <mxPoint x="330" y="-2144" as="sourcePoint" />
            <mxPoint x="374" y="-2144.27" as="targetPoint" />
          </mxGeometry>
        </mxCell>
        <mxCell id="LtLd2qzQEVTSshfY8u-q-362" value="" style="endArrow=none;html=1;rounded=0;fontSize=12;startSize=8;endSize=8;curved=1;" edge="1" parent="1">
          <mxGeometry width="50" height="50" relative="1" as="geometry">
            <mxPoint x="330" y="-2234" as="sourcePoint" />
            <mxPoint x="374" y="-2234.27" as="targetPoint" />
          </mxGeometry>
        </mxCell>
        <mxCell id="LtLd2qzQEVTSshfY8u-q-363" value="" style="endArrow=none;html=1;rounded=0;fontSize=12;startSize=8;endSize=8;curved=1;" edge="1" parent="1">
          <mxGeometry width="50" height="50" relative="1" as="geometry">
            <mxPoint x="330" y="-2314" as="sourcePoint" />
            <mxPoint x="374" y="-2314.27" as="targetPoint" />
          </mxGeometry>
        </mxCell>
        <mxCell id="LtLd2qzQEVTSshfY8u-q-365" value="" style="endArrow=none;html=1;rounded=0;fontSize=12;startSize=8;endSize=8;curved=1;" edge="1" parent="1">
          <mxGeometry width="50" height="50" relative="1" as="geometry">
            <mxPoint x="330" y="-2404" as="sourcePoint" />
            <mxPoint x="374" y="-2404.27" as="targetPoint" />
          </mxGeometry>
        </mxCell>
        <mxCell id="LtLd2qzQEVTSshfY8u-q-366" value="" style="endArrow=none;html=1;rounded=0;fontSize=12;startSize=8;endSize=8;curved=1;exitX=1;exitY=0.5;exitDx=0;exitDy=0;" edge="1" parent="1" source="LtLd2qzQEVTSshfY8u-q-359">
          <mxGeometry width="50" height="50" relative="1" as="geometry">
            <mxPoint x="609.5" y="-2064.67" as="sourcePoint" />
            <mxPoint x="740" y="-1990" as="targetPoint" />
          </mxGeometry>
        </mxCell>
        <mxCell id="LtLd2qzQEVTSshfY8u-q-367" value="" style="endArrow=none;html=1;rounded=0;fontSize=12;startSize=8;endSize=8;curved=1;strokeColor=default;" edge="1" parent="1">
          <mxGeometry width="50" height="50" relative="1" as="geometry">
            <mxPoint x="740" y="-1918" as="sourcePoint" />
            <mxPoint x="740" y="-2408" as="targetPoint" />
          </mxGeometry>
        </mxCell>
        <mxCell id="LtLd2qzQEVTSshfY8u-q-368" value="" style="endArrow=none;html=1;rounded=0;fontSize=12;startSize=8;endSize=8;curved=1;exitX=1;exitY=0.5;exitDx=0;exitDy=0;entryX=1;entryY=0.5;entryDx=0;entryDy=0;entryPerimeter=0;" edge="1" parent="1" target="LtLd2qzQEVTSshfY8u-q-344">
          <mxGeometry width="50" height="50" relative="1" as="geometry">
            <mxPoint x="740" y="-2063.86" as="sourcePoint" />
            <mxPoint x="780" y="-2064.19" as="targetPoint" />
          </mxGeometry>
        </mxCell>
        <mxCell id="LtLd2qzQEVTSshfY8u-q-369" value="" style="endArrow=none;html=1;rounded=0;fontSize=12;startSize=8;endSize=8;curved=1;entryX=1;entryY=0.5;entryDx=0;entryDy=0;entryPerimeter=0;" edge="1" parent="1" target="LtLd2qzQEVTSshfY8u-q-115">
          <mxGeometry width="50" height="50" relative="1" as="geometry">
            <mxPoint x="740" y="-2144" as="sourcePoint" />
            <mxPoint x="783.5" y="-2151.8" as="targetPoint" />
          </mxGeometry>
        </mxCell>
        <mxCell id="LtLd2qzQEVTSshfY8u-q-370" value="" style="endArrow=none;html=1;rounded=0;fontSize=12;startSize=8;endSize=8;curved=1;entryX=1;entryY=0.5;entryDx=0;entryDy=0;entryPerimeter=0;" edge="1" parent="1" target="LtLd2qzQEVTSshfY8u-q-108">
          <mxGeometry width="50" height="50" relative="1" as="geometry">
            <mxPoint x="740" y="-2234" as="sourcePoint" />
            <mxPoint x="783.5" y="-2241.8" as="targetPoint" />
          </mxGeometry>
        </mxCell>
        <mxCell id="LtLd2qzQEVTSshfY8u-q-371" value="" style="endArrow=none;html=1;rounded=0;fontSize=12;startSize=8;endSize=8;curved=1;entryX=1;entryY=0.5;entryDx=0;entryDy=0;entryPerimeter=0;" edge="1" parent="1" target="LtLd2qzQEVTSshfY8u-q-106">
          <mxGeometry width="50" height="50" relative="1" as="geometry">
            <mxPoint x="740" y="-2314" as="sourcePoint" />
            <mxPoint x="783.5" y="-2321.8" as="targetPoint" />
          </mxGeometry>
        </mxCell>
        <mxCell id="LtLd2qzQEVTSshfY8u-q-372" value="" style="endArrow=none;html=1;rounded=0;fontSize=12;startSize=8;endSize=8;curved=1;entryX=1;entryY=0.5;entryDx=0;entryDy=0;entryPerimeter=0;" edge="1" parent="1" target="LtLd2qzQEVTSshfY8u-q-56">
          <mxGeometry width="50" height="50" relative="1" as="geometry">
            <mxPoint x="740" y="-2404" as="sourcePoint" />
            <mxPoint x="783.5" y="-2411.8" as="targetPoint" />
          </mxGeometry>
        </mxCell>
        <mxCell id="LtLd2qzQEVTSshfY8u-q-373" style="edgeStyle=none;rounded=0;html=1;dashed=1;labelBackgroundColor=none;startArrow=none;startFill=0;startSize=8;endArrow=open;endFill=0;endSize=16;fontFamily=Verdana;fontSize=12;entryX=0.468;entryY=-0.002;entryDx=0;entryDy=0;entryPerimeter=0;" edge="1" parent="1" target="LtLd2qzQEVTSshfY8u-q-90">
          <mxGeometry relative="1" as="geometry">
            <mxPoint x="1180" y="-2500" as="sourcePoint" />
            <mxPoint x="1210" y="-2626.5" as="targetPoint" />
            <Array as="points">
              <mxPoint x="925" y="-2500" />
            </Array>
          </mxGeometry>
        </mxCell>
        <mxCell id="LtLd2qzQEVTSshfY8u-q-374" style="edgeStyle=none;rounded=0;html=1;dashed=1;labelBackgroundColor=none;startArrow=none;startFill=0;startSize=8;endArrow=none;endFill=0;endSize=16;fontFamily=Verdana;fontSize=12;strokeColor=default;exitX=0.473;exitY=0;exitDx=0;exitDy=0;exitPerimeter=0;" edge="1" parent="1" source="LtLd2qzQEVTSshfY8u-q-269">
          <mxGeometry relative="1" as="geometry">
            <mxPoint x="1390" y="-2440" as="sourcePoint" />
            <mxPoint x="1180" y="-2500" as="targetPoint" />
            <Array as="points">
              <mxPoint x="1684" y="-2500" />
            </Array>
          </mxGeometry>
        </mxCell>
        <mxCell id="LtLd2qzQEVTSshfY8u-q-382" value="" style="endArrow=none;html=1;rounded=0;fontSize=12;startSize=8;endSize=8;curved=1;entryX=1;entryY=0.5;entryDx=0;entryDy=0;entryPerimeter=0;" edge="1" parent="1">
          <mxGeometry width="50" height="50" relative="1" as="geometry">
            <mxPoint x="1070" y="-2405" as="sourcePoint" />
            <mxPoint x="1527" y="-2404.71" as="targetPoint" />
          </mxGeometry>
        </mxCell>
        <mxCell id="LtLd2qzQEVTSshfY8u-q-384" value="" style="endArrow=none;html=1;rounded=0;fontSize=12;startSize=8;endSize=8;curved=1;" edge="1" parent="1">
          <mxGeometry width="50" height="50" relative="1" as="geometry">
            <mxPoint x="740" y="-1918.63" as="sourcePoint" />
            <mxPoint x="1070" y="-1919" as="targetPoint" />
          </mxGeometry>
        </mxCell>
        <mxCell id="LtLd2qzQEVTSshfY8u-q-397" value="" style="endArrow=none;html=1;rounded=0;fontSize=12;startSize=8;endSize=8;curved=1;" edge="1" parent="1">
          <mxGeometry width="50" height="50" relative="1" as="geometry">
            <mxPoint x="1045" y="-2249.34" as="sourcePoint" />
            <mxPoint x="1070" y="-2250" as="targetPoint" />
          </mxGeometry>
        </mxCell>
        <mxCell id="LtLd2qzQEVTSshfY8u-q-398" value="" style="endArrow=none;html=1;rounded=0;fontSize=12;startSize=8;endSize=8;curved=1;strokeColor=default;" edge="1" parent="1">
          <mxGeometry width="50" height="50" relative="1" as="geometry">
            <mxPoint x="1070" y="-900" as="sourcePoint" />
            <mxPoint x="1070" y="-2250" as="targetPoint" />
          </mxGeometry>
        </mxCell>
        <mxCell id="LtLd2qzQEVTSshfY8u-q-410" value="" style="endArrow=none;html=1;rounded=0;fontSize=12;startSize=8;endSize=8;curved=1;entryX=1;entryY=0.5;entryDx=0;entryDy=0;entryPerimeter=0;" edge="1" parent="1">
          <mxGeometry width="50" height="50" relative="1" as="geometry">
            <mxPoint x="1070" y="-2314.71" as="sourcePoint" />
            <mxPoint x="1527" y="-2314.42" as="targetPoint" />
          </mxGeometry>
        </mxCell>
        <mxCell id="LtLd2qzQEVTSshfY8u-q-411" value="" style="endArrow=none;html=1;rounded=0;fontSize=12;startSize=8;endSize=8;curved=1;entryX=1;entryY=0.5;entryDx=0;entryDy=0;entryPerimeter=0;" edge="1" parent="1">
          <mxGeometry width="50" height="50" relative="1" as="geometry">
            <mxPoint x="1070" y="-2234.71" as="sourcePoint" />
            <mxPoint x="1527" y="-2234.42" as="targetPoint" />
          </mxGeometry>
        </mxCell>
        <mxCell id="LtLd2qzQEVTSshfY8u-q-412" value="" style="endArrow=none;html=1;rounded=0;fontSize=12;startSize=8;endSize=8;curved=1;entryX=1;entryY=0.5;entryDx=0;entryDy=0;entryPerimeter=0;" edge="1" parent="1">
          <mxGeometry width="50" height="50" relative="1" as="geometry">
            <mxPoint x="1070" y="-2144.71" as="sourcePoint" />
            <mxPoint x="1527" y="-2144.42" as="targetPoint" />
          </mxGeometry>
        </mxCell>
        <mxCell id="LtLd2qzQEVTSshfY8u-q-413" value="" style="endArrow=none;html=1;rounded=0;fontSize=12;startSize=8;endSize=8;curved=1;entryX=1;entryY=0.5;entryDx=0;entryDy=0;entryPerimeter=0;" edge="1" parent="1">
          <mxGeometry width="50" height="50" relative="1" as="geometry">
            <mxPoint x="1070" y="-2064.71" as="sourcePoint" />
            <mxPoint x="1527" y="-2064.42" as="targetPoint" />
          </mxGeometry>
        </mxCell>
        <mxCell id="LtLd2qzQEVTSshfY8u-q-414" value="" style="endArrow=none;html=1;rounded=0;fontSize=12;startSize=8;endSize=8;curved=1;entryX=1;entryY=0.5;entryDx=0;entryDy=0;entryPerimeter=0;" edge="1" parent="1">
          <mxGeometry width="50" height="50" relative="1" as="geometry">
            <mxPoint x="1070" y="-1964.71" as="sourcePoint" />
            <mxPoint x="1527" y="-1964.42" as="targetPoint" />
          </mxGeometry>
        </mxCell>
        <mxCell id="LtLd2qzQEVTSshfY8u-q-415" value="" style="endArrow=none;html=1;rounded=0;fontSize=12;startSize=8;endSize=8;curved=1;" edge="1" parent="1">
          <mxGeometry width="50" height="50" relative="1" as="geometry">
            <mxPoint x="1070" y="-1919" as="sourcePoint" />
            <mxPoint x="1470" y="-1920" as="targetPoint" />
          </mxGeometry>
        </mxCell>
        <mxCell id="LtLd2qzQEVTSshfY8u-q-416" value="" style="endArrow=none;html=1;rounded=0;fontSize=12;startSize=8;endSize=8;curved=1;strokeColor=default;" edge="1" parent="1">
          <mxGeometry width="50" height="50" relative="1" as="geometry">
            <mxPoint x="1470" y="60" as="sourcePoint" />
            <mxPoint x="1470" y="-1919" as="targetPoint" />
          </mxGeometry>
        </mxCell>
        <mxCell id="LtLd2qzQEVTSshfY8u-q-417" value="" style="endArrow=none;html=1;rounded=0;fontSize=12;startSize=8;endSize=8;curved=1;entryX=1;entryY=0.5;entryDx=0;entryDy=0;entryPerimeter=0;" edge="1" parent="1">
          <mxGeometry width="50" height="50" relative="1" as="geometry">
            <mxPoint x="1070" y="-1265" as="sourcePoint" />
            <mxPoint x="1108.5" y="-1265.5" as="targetPoint" />
          </mxGeometry>
        </mxCell>
        <mxCell id="LtLd2qzQEVTSshfY8u-q-418" value="" style="endArrow=none;html=1;rounded=0;fontSize=12;startSize=8;endSize=8;curved=1;entryX=1;entryY=0.5;entryDx=0;entryDy=0;entryPerimeter=0;" edge="1" parent="1">
          <mxGeometry width="50" height="50" relative="1" as="geometry">
            <mxPoint x="1070" y="-1174.75" as="sourcePoint" />
            <mxPoint x="1108.5" y="-1175.25" as="targetPoint" />
          </mxGeometry>
        </mxCell>
        <mxCell id="LtLd2qzQEVTSshfY8u-q-419" value="" style="endArrow=none;html=1;rounded=0;fontSize=12;startSize=8;endSize=8;curved=1;entryX=1;entryY=0.5;entryDx=0;entryDy=0;entryPerimeter=0;" edge="1" parent="1">
          <mxGeometry width="50" height="50" relative="1" as="geometry">
            <mxPoint x="1070" y="-1094.75" as="sourcePoint" />
            <mxPoint x="1108.5" y="-1095.25" as="targetPoint" />
          </mxGeometry>
        </mxCell>
        <mxCell id="LtLd2qzQEVTSshfY8u-q-420" value="" style="endArrow=none;html=1;rounded=0;fontSize=12;startSize=8;endSize=8;curved=1;entryX=1;entryY=0.5;entryDx=0;entryDy=0;entryPerimeter=0;" edge="1" parent="1">
          <mxGeometry width="50" height="50" relative="1" as="geometry">
            <mxPoint x="1070" y="-994.75" as="sourcePoint" />
            <mxPoint x="1108.5" y="-995.25" as="targetPoint" />
          </mxGeometry>
        </mxCell>
        <mxCell id="LtLd2qzQEVTSshfY8u-q-421" value="" style="endArrow=none;html=1;rounded=0;fontSize=12;startSize=8;endSize=8;curved=1;entryX=1;entryY=0.5;entryDx=0;entryDy=0;entryPerimeter=0;" edge="1" parent="1">
          <mxGeometry width="50" height="50" relative="1" as="geometry">
            <mxPoint x="1070" y="-903.75" as="sourcePoint" />
            <mxPoint x="1108.5" y="-904.25" as="targetPoint" />
          </mxGeometry>
        </mxCell>
        <mxCell id="LtLd2qzQEVTSshfY8u-q-422" value="" style="endArrow=none;html=1;rounded=0;fontSize=12;startSize=8;endSize=8;curved=1;entryX=1;entryY=0.5;entryDx=0;entryDy=0;entryPerimeter=0;" edge="1" parent="1">
          <mxGeometry width="50" height="50" relative="1" as="geometry">
            <mxPoint x="1070" y="-1344.75" as="sourcePoint" />
            <mxPoint x="1108.5" y="-1345.25" as="targetPoint" />
          </mxGeometry>
        </mxCell>
        <mxCell id="LtLd2qzQEVTSshfY8u-q-423" value="" style="endArrow=none;html=1;rounded=0;fontSize=12;startSize=8;endSize=8;curved=1;entryX=1;entryY=0.5;entryDx=0;entryDy=0;entryPerimeter=0;" edge="1" parent="1">
          <mxGeometry width="50" height="50" relative="1" as="geometry">
            <mxPoint x="1070" y="-1433.75" as="sourcePoint" />
            <mxPoint x="1108.5" y="-1434.25" as="targetPoint" />
          </mxGeometry>
        </mxCell>
        <mxCell id="LtLd2qzQEVTSshfY8u-q-424" value="" style="endArrow=none;html=1;rounded=0;fontSize=12;startSize=8;endSize=8;curved=1;entryX=1;entryY=0.5;entryDx=0;entryDy=0;entryPerimeter=0;" edge="1" parent="1">
          <mxGeometry width="50" height="50" relative="1" as="geometry">
            <mxPoint x="1070" y="-1534.75" as="sourcePoint" />
            <mxPoint x="1108.5" y="-1535.25" as="targetPoint" />
          </mxGeometry>
        </mxCell>
        <mxCell id="LtLd2qzQEVTSshfY8u-q-425" value="" style="endArrow=none;html=1;rounded=0;fontSize=12;startSize=8;endSize=8;curved=1;entryX=1;entryY=0.5;entryDx=0;entryDy=0;entryPerimeter=0;" edge="1" parent="1">
          <mxGeometry width="50" height="50" relative="1" as="geometry">
            <mxPoint x="1070" y="-1614.75" as="sourcePoint" />
            <mxPoint x="1108.5" y="-1615.25" as="targetPoint" />
          </mxGeometry>
        </mxCell>
        <mxCell id="LtLd2qzQEVTSshfY8u-q-426" value="" style="endArrow=none;html=1;rounded=0;fontSize=12;startSize=8;endSize=8;curved=1;entryX=1;entryY=0.5;entryDx=0;entryDy=0;entryPerimeter=0;" edge="1" parent="1">
          <mxGeometry width="50" height="50" relative="1" as="geometry">
            <mxPoint x="1070" y="-1704.75" as="sourcePoint" />
            <mxPoint x="1108.5" y="-1705.25" as="targetPoint" />
          </mxGeometry>
        </mxCell>
        <mxCell id="LtLd2qzQEVTSshfY8u-q-427" value="" style="endArrow=none;html=1;rounded=0;fontSize=12;startSize=8;endSize=8;curved=1;entryX=1;entryY=0.5;entryDx=0;entryDy=0;entryPerimeter=0;" edge="1" parent="1">
          <mxGeometry width="50" height="50" relative="1" as="geometry">
            <mxPoint x="1070" y="-1784.75" as="sourcePoint" />
            <mxPoint x="1108.5" y="-1785.25" as="targetPoint" />
          </mxGeometry>
        </mxCell>
        <mxCell id="LtLd2qzQEVTSshfY8u-q-428" value="" style="endArrow=none;html=1;rounded=0;fontSize=12;startSize=8;endSize=8;curved=1;entryX=1;entryY=0.5;entryDx=0;entryDy=0;entryPerimeter=0;" edge="1" parent="1">
          <mxGeometry width="50" height="50" relative="1" as="geometry">
            <mxPoint x="1070" y="-1874.75" as="sourcePoint" />
            <mxPoint x="1108.5" y="-1875.25" as="targetPoint" />
          </mxGeometry>
        </mxCell>
        <mxCell id="LtLd2qzQEVTSshfY8u-q-429" value="" style="endArrow=none;html=1;rounded=0;fontSize=12;startSize=8;endSize=8;curved=1;entryX=1;entryY=0.5;entryDx=0;entryDy=0;entryPerimeter=0;" edge="1" parent="1">
          <mxGeometry width="50" height="50" relative="1" as="geometry">
            <mxPoint x="1470" y="-1874" as="sourcePoint" />
            <mxPoint x="1527" y="-1874.4" as="targetPoint" />
          </mxGeometry>
        </mxCell>
        <mxCell id="LtLd2qzQEVTSshfY8u-q-430" value="" style="endArrow=none;html=1;rounded=0;fontSize=12;startSize=8;endSize=8;curved=1;entryX=1;entryY=0.5;entryDx=0;entryDy=0;entryPerimeter=0;" edge="1" parent="1">
          <mxGeometry width="50" height="50" relative="1" as="geometry">
            <mxPoint x="1470" y="-1794" as="sourcePoint" />
            <mxPoint x="1527" y="-1794.4" as="targetPoint" />
          </mxGeometry>
        </mxCell>
        <mxCell id="LtLd2qzQEVTSshfY8u-q-431" value="" style="endArrow=none;html=1;rounded=0;fontSize=12;startSize=8;endSize=8;curved=1;entryX=1;entryY=0.5;entryDx=0;entryDy=0;entryPerimeter=0;" edge="1" parent="1">
          <mxGeometry width="50" height="50" relative="1" as="geometry">
            <mxPoint x="1470" y="-1704" as="sourcePoint" />
            <mxPoint x="1527" y="-1704.4" as="targetPoint" />
          </mxGeometry>
        </mxCell>
        <mxCell id="LtLd2qzQEVTSshfY8u-q-432" value="" style="endArrow=none;html=1;rounded=0;fontSize=12;startSize=8;endSize=8;curved=1;entryX=1;entryY=0.5;entryDx=0;entryDy=0;entryPerimeter=0;" edge="1" parent="1">
          <mxGeometry width="50" height="50" relative="1" as="geometry">
            <mxPoint x="1470" y="-1624" as="sourcePoint" />
            <mxPoint x="1527" y="-1624.4" as="targetPoint" />
          </mxGeometry>
        </mxCell>
        <mxCell id="LtLd2qzQEVTSshfY8u-q-433" value="" style="endArrow=none;html=1;rounded=0;fontSize=12;startSize=8;endSize=8;curved=1;entryX=1;entryY=0.5;entryDx=0;entryDy=0;entryPerimeter=0;" edge="1" parent="1">
          <mxGeometry width="50" height="50" relative="1" as="geometry">
            <mxPoint x="1470" y="-1524" as="sourcePoint" />
            <mxPoint x="1527" y="-1524.4" as="targetPoint" />
          </mxGeometry>
        </mxCell>
        <mxCell id="LtLd2qzQEVTSshfY8u-q-434" value="" style="endArrow=none;html=1;rounded=0;fontSize=12;startSize=8;endSize=8;curved=1;entryX=1;entryY=0.5;entryDx=0;entryDy=0;entryPerimeter=0;" edge="1" parent="1">
          <mxGeometry width="50" height="50" relative="1" as="geometry">
            <mxPoint x="1470" y="-1434" as="sourcePoint" />
            <mxPoint x="1527" y="-1434.4" as="targetPoint" />
          </mxGeometry>
        </mxCell>
        <mxCell id="LtLd2qzQEVTSshfY8u-q-435" value="" style="endArrow=none;html=1;rounded=0;fontSize=12;startSize=8;endSize=8;curved=1;entryX=1;entryY=0.5;entryDx=0;entryDy=0;entryPerimeter=0;" edge="1" parent="1">
          <mxGeometry width="50" height="50" relative="1" as="geometry">
            <mxPoint x="1470" y="-1344" as="sourcePoint" />
            <mxPoint x="1527" y="-1344.4" as="targetPoint" />
          </mxGeometry>
        </mxCell>
        <mxCell id="LtLd2qzQEVTSshfY8u-q-436" value="" style="endArrow=none;html=1;rounded=0;fontSize=12;startSize=8;endSize=8;curved=1;entryX=1;entryY=0.5;entryDx=0;entryDy=0;entryPerimeter=0;" edge="1" parent="1">
          <mxGeometry width="50" height="50" relative="1" as="geometry">
            <mxPoint x="1470" y="-1254" as="sourcePoint" />
            <mxPoint x="1527" y="-1254.4" as="targetPoint" />
          </mxGeometry>
        </mxCell>
        <mxCell id="LtLd2qzQEVTSshfY8u-q-437" value="" style="endArrow=none;html=1;rounded=0;fontSize=12;startSize=8;endSize=8;curved=1;entryX=1;entryY=0.5;entryDx=0;entryDy=0;entryPerimeter=0;" edge="1" parent="1">
          <mxGeometry width="50" height="50" relative="1" as="geometry">
            <mxPoint x="1470" y="-1175" as="sourcePoint" />
            <mxPoint x="1527" y="-1175.4" as="targetPoint" />
          </mxGeometry>
        </mxCell>
        <mxCell id="LtLd2qzQEVTSshfY8u-q-438" value="" style="endArrow=none;html=1;rounded=0;fontSize=12;startSize=8;endSize=8;curved=1;entryX=1;entryY=0.5;entryDx=0;entryDy=0;entryPerimeter=0;" edge="1" parent="1">
          <mxGeometry width="50" height="50" relative="1" as="geometry">
            <mxPoint x="1470" y="-1084" as="sourcePoint" />
            <mxPoint x="1527" y="-1084.4" as="targetPoint" />
          </mxGeometry>
        </mxCell>
        <mxCell id="LtLd2qzQEVTSshfY8u-q-439" value="" style="endArrow=none;html=1;rounded=0;fontSize=12;startSize=8;endSize=8;curved=1;entryX=1;entryY=0.5;entryDx=0;entryDy=0;entryPerimeter=0;" edge="1" parent="1">
          <mxGeometry width="50" height="50" relative="1" as="geometry">
            <mxPoint x="1470" y="-1004" as="sourcePoint" />
            <mxPoint x="1527" y="-1004.4000000000001" as="targetPoint" />
          </mxGeometry>
        </mxCell>
        <mxCell id="LtLd2qzQEVTSshfY8u-q-440" value="" style="endArrow=none;html=1;rounded=0;fontSize=12;startSize=8;endSize=8;curved=1;entryX=1;entryY=0.5;entryDx=0;entryDy=0;entryPerimeter=0;" edge="1" parent="1">
          <mxGeometry width="50" height="50" relative="1" as="geometry">
            <mxPoint x="1470" y="-904" as="sourcePoint" />
            <mxPoint x="1527" y="-904.4000000000001" as="targetPoint" />
          </mxGeometry>
        </mxCell>
        <mxCell id="LtLd2qzQEVTSshfY8u-q-441" value="" style="endArrow=none;html=1;rounded=0;fontSize=12;startSize=8;endSize=8;curved=1;entryX=1;entryY=0.5;entryDx=0;entryDy=0;entryPerimeter=0;" edge="1" parent="1">
          <mxGeometry width="50" height="50" relative="1" as="geometry">
            <mxPoint x="1470" y="-814" as="sourcePoint" />
            <mxPoint x="1527" y="-814.4000000000001" as="targetPoint" />
          </mxGeometry>
        </mxCell>
        <mxCell id="LtLd2qzQEVTSshfY8u-q-442" value="" style="endArrow=none;html=1;rounded=0;fontSize=12;startSize=8;endSize=8;curved=1;entryX=1;entryY=0.5;entryDx=0;entryDy=0;entryPerimeter=0;" edge="1" parent="1">
          <mxGeometry width="50" height="50" relative="1" as="geometry">
            <mxPoint x="1470" y="-734" as="sourcePoint" />
            <mxPoint x="1527" y="-734.4000000000001" as="targetPoint" />
          </mxGeometry>
        </mxCell>
        <mxCell id="LtLd2qzQEVTSshfY8u-q-443" value="" style="endArrow=none;html=1;rounded=0;fontSize=12;startSize=8;endSize=8;curved=1;entryX=1;entryY=0.5;entryDx=0;entryDy=0;entryPerimeter=0;" edge="1" parent="1">
          <mxGeometry width="50" height="50" relative="1" as="geometry">
            <mxPoint x="1470" y="-644" as="sourcePoint" />
            <mxPoint x="1527" y="-644.4000000000001" as="targetPoint" />
          </mxGeometry>
        </mxCell>
        <mxCell id="LtLd2qzQEVTSshfY8u-q-444" value="" style="endArrow=none;html=1;rounded=0;fontSize=12;startSize=8;endSize=8;curved=1;entryX=1;entryY=0.5;entryDx=0;entryDy=0;entryPerimeter=0;" edge="1" parent="1">
          <mxGeometry width="50" height="50" relative="1" as="geometry">
            <mxPoint x="1470" y="-564" as="sourcePoint" />
            <mxPoint x="1527" y="-564.4000000000001" as="targetPoint" />
          </mxGeometry>
        </mxCell>
        <mxCell id="LtLd2qzQEVTSshfY8u-q-445" value="" style="endArrow=none;html=1;rounded=0;fontSize=12;startSize=8;endSize=8;curved=1;entryX=1;entryY=0.5;entryDx=0;entryDy=0;entryPerimeter=0;" edge="1" parent="1">
          <mxGeometry width="50" height="50" relative="1" as="geometry">
            <mxPoint x="1470" y="-464" as="sourcePoint" />
            <mxPoint x="1527" y="-464.4000000000001" as="targetPoint" />
          </mxGeometry>
        </mxCell>
        <mxCell id="LtLd2qzQEVTSshfY8u-q-446" value="" style="endArrow=none;html=1;rounded=0;fontSize=12;startSize=8;endSize=8;curved=1;entryX=1;entryY=0.5;entryDx=0;entryDy=0;entryPerimeter=0;" edge="1" parent="1">
          <mxGeometry width="50" height="50" relative="1" as="geometry">
            <mxPoint x="1470" y="-374" as="sourcePoint" />
            <mxPoint x="1527" y="-374.4000000000001" as="targetPoint" />
          </mxGeometry>
        </mxCell>
        <mxCell id="LtLd2qzQEVTSshfY8u-q-447" value="" style="endArrow=none;html=1;rounded=0;fontSize=12;startSize=8;endSize=8;curved=1;entryX=1;entryY=0.5;entryDx=0;entryDy=0;entryPerimeter=0;" edge="1" parent="1">
          <mxGeometry width="50" height="50" relative="1" as="geometry">
            <mxPoint x="1470" y="-284" as="sourcePoint" />
            <mxPoint x="1527" y="-284.4000000000001" as="targetPoint" />
          </mxGeometry>
        </mxCell>
        <mxCell id="LtLd2qzQEVTSshfY8u-q-448" value="" style="endArrow=none;html=1;rounded=0;fontSize=12;startSize=8;endSize=8;curved=1;entryX=1;entryY=0.5;entryDx=0;entryDy=0;entryPerimeter=0;" edge="1" parent="1">
          <mxGeometry width="50" height="50" relative="1" as="geometry">
            <mxPoint x="1470" y="-194" as="sourcePoint" />
            <mxPoint x="1527" y="-194.4000000000001" as="targetPoint" />
          </mxGeometry>
        </mxCell>
        <mxCell id="LtLd2qzQEVTSshfY8u-q-449" value="" style="endArrow=none;html=1;rounded=0;fontSize=12;startSize=8;endSize=8;curved=1;entryX=1;entryY=0.5;entryDx=0;entryDy=0;entryPerimeter=0;" edge="1" parent="1">
          <mxGeometry width="50" height="50" relative="1" as="geometry">
            <mxPoint x="1470" y="-114" as="sourcePoint" />
            <mxPoint x="1527" y="-114.40000000000009" as="targetPoint" />
          </mxGeometry>
        </mxCell>
        <mxCell id="LtLd2qzQEVTSshfY8u-q-450" value="" style="endArrow=none;html=1;rounded=0;fontSize=12;startSize=8;endSize=8;curved=1;entryX=1;entryY=0.5;entryDx=0;entryDy=0;entryPerimeter=0;" edge="1" parent="1">
          <mxGeometry width="50" height="50" relative="1" as="geometry">
            <mxPoint x="1470" y="-24" as="sourcePoint" />
            <mxPoint x="1527" y="-24.40000000000009" as="targetPoint" />
          </mxGeometry>
        </mxCell>
        <mxCell id="LtLd2qzQEVTSshfY8u-q-451" value="" style="endArrow=none;html=1;rounded=0;fontSize=12;startSize=8;endSize=8;curved=1;entryX=1;entryY=0.5;entryDx=0;entryDy=0;entryPerimeter=0;" edge="1" parent="1">
          <mxGeometry width="50" height="50" relative="1" as="geometry">
            <mxPoint x="1470" y="56" as="sourcePoint" />
            <mxPoint x="1527" y="55.59999999999991" as="targetPoint" />
          </mxGeometry>
        </mxCell>
        <mxCell id="LtLd2qzQEVTSshfY8u-q-454" style="edgeStyle=none;rounded=0;html=1;dashed=1;labelBackgroundColor=none;startArrow=none;startFill=0;startSize=8;endArrow=none;endFill=0;endSize=16;fontFamily=Verdana;fontSize=12;strokeColor=default;exitX=0.5;exitY=1;exitDx=0;exitDy=0;" edge="1" parent="1" source="LtLd2qzQEVTSshfY8u-q-136">
          <mxGeometry relative="1" as="geometry">
            <mxPoint x="1311.5" y="-409" as="sourcePoint" />
            <mxPoint x="1272" y="200" as="targetPoint" />
            <Array as="points">
              <mxPoint x="1272" y="-740" />
            </Array>
          </mxGeometry>
        </mxCell>
        <mxCell id="LtLd2qzQEVTSshfY8u-q-459" style="edgeStyle=none;rounded=0;html=1;dashed=1;labelBackgroundColor=none;startArrow=none;startFill=0;startSize=8;endArrow=none;endFill=0;endSize=16;fontFamily=Verdana;fontSize=12;strokeColor=default;" edge="1" parent="1">
          <mxGeometry relative="1" as="geometry">
            <mxPoint x="1840" y="-520" as="sourcePoint" />
            <mxPoint x="1270" y="200" as="targetPoint" />
            <Array as="points">
              <mxPoint x="1840" y="200" />
            </Array>
          </mxGeometry>
        </mxCell>
        <mxCell id="LtLd2qzQEVTSshfY8u-q-460" style="edgeStyle=none;rounded=0;html=1;dashed=1;labelBackgroundColor=none;startArrow=none;startFill=0;startSize=8;endArrow=open;endFill=0;endSize=16;fontFamily=Verdana;fontSize=12;entryX=0.25;entryY=0;entryDx=0;entryDy=0;" edge="1" parent="1" target="LtLd2qzQEVTSshfY8u-q-90">
          <mxGeometry relative="1" as="geometry">
            <mxPoint x="1840" y="-510" as="sourcePoint" />
            <mxPoint x="860" y="-2530" as="targetPoint" />
            <Array as="points">
              <mxPoint x="1840" y="-2520" />
              <mxPoint x="876" y="-2520" />
            </Array>
          </mxGeometry>
        </mxCell>
        <mxCell id="LtLd2qzQEVTSshfY8u-q-461" value="" style="endArrow=none;html=1;rounded=0;fontSize=12;startSize=8;endSize=8;curved=1;" edge="1" parent="1">
          <mxGeometry width="50" height="50" relative="1" as="geometry">
            <mxPoint x="1070" y="-2240" as="sourcePoint" />
            <mxPoint x="1070" y="-2405" as="targetPoint" />
          </mxGeometry>
        </mxCell>
      </root>
    </mxGraphModel>
  </diagram>
</mxfile>
